<svg xmlns="http://www.w3.org/2000/svg" width="330.016" height="115.912"
    viewBox="0 0 330.016 115.912">
    <g id="Group_207" data-name="Group 207" transform="translate(-28.943 -78.001)">
        <g id="Book" transform="translate(28.943 144.691)" opacity="0.15">
            <g id="Book-2" data-name="Book" transform="translate(0 0)">
                <path id="Path"
                    d="M0,3.713C0,1.777.53.769,1.538,0L32.515,12.783c-1.565,4.774-.261,9.081,1.3,10.29L2.175,8.619A6.368,6.368,0,0,1,0,3.713Z"
                    transform="translate(1.192 24.955)" fill="#fff" />
                <path id="Shape"
                    d="M35.005,25.458a1.182,1.182,0,0,1-.494-.108L2.872,10.9a1.181,1.181,0,0,1-.239-.145A7.57,7.57,0,0,1,0,4.905,6.84,6.84,0,0,1,.491,2.133,4.718,4.718,0,0,1,2.007.245,1.2,1.2,0,0,1,2.73,0a1.185,1.185,0,0,1,.455.09L34.162,12.874a1.2,1.2,0,0,1,.678,1.473,12.362,12.362,0,0,0-.482,5.9,5.4,5.4,0,0,0,1.379,3.076,1.192,1.192,0,0,1-.731,2.135ZM2.73,1.192h0A4.132,4.132,0,0,0,1.192,4.905,6.687,6.687,0,0,0,1.943,8.02,5.63,5.63,0,0,0,3.367,9.812l31.64,14.454a4.626,4.626,0,0,1-1.282-1.9,10.72,10.72,0,0,1-.719-3.7,13.833,13.833,0,0,1,.7-4.7L2.73,1.192Z"
                    transform="translate(0 23.763)" />
                <path id="Path-2" data-name="Path"
                    d="M58.289,11.588,28.325,0,0,23.877,32.539,37.572Z"
                    transform="translate(2.576 1.192)" />
                <path id="Shape-2" data-name="Shape"
                    d="M33.73,39.956a1.186,1.186,0,0,1-.462-.093L.729,26.168a1.192,1.192,0,0,1-.306-2.01L28.748.28a1.192,1.192,0,0,1,1.2-.2L59.91,11.668a1.192,1.192,0,0,1,.417,1.951L34.577,39.6A1.185,1.185,0,0,1,33.73,39.956ZM29.517,1.192h0L1.192,25.07,33.731,38.764,59.481,12.78,29.517,1.192Z"
                    transform="translate(1.384 0)" />
                <path id="Path-3" data-name="Path" d="M15.616,5.145,2.515,0,0,2.158,12.991,7.6Z"
                    transform="translate(28.116 10.355)" fill="#fff" />
                <path id="Path-4" data-name="Path"
                    d="M27.678,8.832C24.813,6.5,25.344,2.758,27.545,0L.759,25.3a10.617,10.617,0,0,0,1.114,9.879Z"
                    transform="translate(33.16 12.835)" fill="#fff" />
                <path id="Shape-3" data-name="Shape"
                    d="M3.067,37.565h0c-.035,0-.071,0-.107,0a1.191,1.191,0,0,1-.88-.519A12.514,12.514,0,0,1,.186,32.334a11.056,11.056,0,0,1,.667-6.3,1.187,1.187,0,0,1,.282-.409L27.921.326a1.192,1.192,0,0,1,1.75,1.61A6.721,6.721,0,0,0,28.1,5.8,3.915,3.915,0,0,0,29.626,9.1a1.192,1.192,0,0,1,.1,1.758L3.919,37.207A1.2,1.2,0,0,1,3.067,37.565ZM28.74,1.192,1.953,26.493a9.854,9.854,0,0,0-.7,4.843A11.317,11.317,0,0,0,2.44,35.309a10.322,10.322,0,0,0,.627,1.063L28.873,10.023a5.808,5.808,0,0,1-.777-.761,4.978,4.978,0,0,1-1.1-2.332,5.94,5.94,0,0,1,.119-2.559A8.6,8.6,0,0,1,28.74,1.192Z"
                    transform="translate(31.966 11.643)" />
                <path id="Path-5" data-name="Path"
                    d="M19.271.182a.6.6,0,0,1-.014.843L1.011,18.687a.6.6,0,1,1-.829-.857L18.428.168A.6.6,0,0,1,19.271.182Z"
                    transform="translate(39.9 21.177)" />
                <path id="Path-6" data-name="Path"
                    d="M12.809.191a.6.6,0,0,1-.032.842L1,11.96a.6.6,0,0,1-.811-.874L11.966.159A.6.6,0,0,1,12.809.191Z"
                    transform="translate(45.311 19.692)" />
                <path id="Path-7" data-name="Path"
                    d="M.048.363A.6.6,0,0,1,.83.048L12.185,4.881a.6.6,0,1,1-.467,1.1L.363,1.145A.6.6,0,0,1,.048.363Z"
                    transform="translate(7.593 31.619)" />
            </g>
        </g>
        <g id="Patent" transform="matrix(0.921, -0.391, 0.391, 0.921, 97.414, 103.145)"
            opacity="0.2">
            <g id="Patent-2" data-name="Patent">
                <path id="Path-8" data-name="Path"
                    d="M0,1.578A1.567,1.567,0,0,1,1.555,0H47.1a1.567,1.567,0,0,1,1.555,1.578A1.567,1.567,0,0,1,47.1,3.156H1.555A1.567,1.567,0,0,1,0,1.578Z"
                    transform="translate(0 53.03)" />
                <path id="Path-9" data-name="Path"
                    d="M0,1.578A1.567,1.567,0,0,1,1.555,0H47.1a1.567,1.567,0,0,1,1.555,1.578A1.567,1.567,0,0,1,47.1,3.156H1.555A1.567,1.567,0,0,1,0,1.578Z"
                    transform="translate(0 2.535)" />
                <path id="Path-10" data-name="Path"
                    d="M0,4.358A4.327,4.327,0,0,1,4.295,0H32.7a4.327,4.327,0,0,1,4.295,4.358V46.339A4.327,4.327,0,0,1,32.7,50.7H4.295A4.327,4.327,0,0,1,0,46.339Z"
                    transform="translate(5.792 4.089)" fill="#fff" />
                <path id="Shape-4" data-name="Shape"
                    d="M33.771,52.876H5.369A5.415,5.415,0,0,1,0,47.428V5.448A5.415,5.415,0,0,1,5.369,0h28.4A5.415,5.415,0,0,1,39.14,5.448v41.98A5.415,5.415,0,0,1,33.771,52.876ZM5.369,1.09A4.332,4.332,0,0,0,1.074,5.448v41.98a4.332,4.332,0,0,0,4.295,4.359h28.4a4.332,4.332,0,0,0,4.295-4.359V5.448A4.332,4.332,0,0,0,33.771,1.09Z"
                    transform="translate(4.719 2.999)" />
                <path id="Path-11" data-name="Path" d="M0,0H36.993V1.9H0Z"
                    transform="translate(5.792 48.635)" />
                <path id="Path-12" data-name="Path"
                    d="M0,3.269A3.245,3.245,0,0,1,3.221,0H40.747a3.245,3.245,0,0,1,3.221,3.269v.305a3.245,3.245,0,0,1-3.221,3.269H3.221A3.245,3.245,0,0,1,0,3.574Z"
                    transform="translate(2.304 1.09)" fill="#fff" />
                <path id="Shape-5" data-name="Shape"
                    d="M41.821,9.022H4.295A4.332,4.332,0,0,1,0,4.664V4.358A4.332,4.332,0,0,1,4.295,0H41.821a4.332,4.332,0,0,1,4.3,4.358v.306A4.332,4.332,0,0,1,41.821,9.022ZM4.295,1.09A3.248,3.248,0,0,0,1.074,4.358v.306A3.248,3.248,0,0,0,4.295,7.932H41.821a3.249,3.249,0,0,0,3.221-3.268V4.358A3.249,3.249,0,0,0,41.821,1.09Z"
                    transform="translate(1.231)" />
                <path id="Path-13" data-name="Path"
                    d="M0,.545A.541.541,0,0,1,.537,0H9.954a.541.541,0,0,1,.537.545.541.541,0,0,1-.537.545H.537A.541.541,0,0,1,0,.545Z"
                    transform="translate(34.284 2.256)" />
                <path id="Path-14" data-name="Path"
                    d="M2.372,1.387H40.76A2.781,2.781,0,0,0,43.16,0L0,.048A2.78,2.78,0,0,0,2.372,1.387Z"
                    transform="translate(2.723 6.545)" />
                <path id="Path-15" data-name="Path"
                    d="M0,3.269A3.245,3.245,0,0,1,3.221,0H40.747a3.245,3.245,0,0,1,3.221,3.269v.675a3.245,3.245,0,0,1-3.221,3.268H3.221A3.245,3.245,0,0,1,0,3.944Z"
                    transform="translate(2.304 51.113)" fill="#fff" />
                <path id="Shape-6" data-name="Shape"
                    d="M41.821,9.392H4.295A4.332,4.332,0,0,1,0,5.034V4.359A4.332,4.332,0,0,1,4.295,0H41.821a4.332,4.332,0,0,1,4.3,4.359v.675A4.332,4.332,0,0,1,41.821,9.392ZM4.295,1.09A3.249,3.249,0,0,0,1.074,4.359v.675A3.249,3.249,0,0,0,4.295,8.3H41.821a3.249,3.249,0,0,0,3.221-3.269V4.359A3.249,3.249,0,0,0,41.821,1.09Z"
                    transform="translate(1.231 50.023)" />
                <path id="Path-16" data-name="Path"
                    d="M0,.545A.541.541,0,0,1,.537,0H13.675a.541.541,0,0,1,.537.545.541.541,0,0,1-.537.545H.537A.541.541,0,0,1,0,.545Z"
                    transform="translate(3.591 52.75)" />
                <path id="Path-17" data-name="Path"
                    d="M0,.545A.541.541,0,0,1,.537,0h5.7a.541.541,0,0,1,.537.545.541.541,0,0,1-.537.545H.537A.541.541,0,0,1,0,.545Z"
                    transform="translate(40.039 55.401)" />
                <path id="Path-18" data-name="Path"
                    d="M2.372,1.387H40.76A2.782,2.782,0,0,0,43.16,0L0,.048A2.78,2.78,0,0,0,2.372,1.387Z"
                    transform="translate(2.723 57.04)" />
                <path id="Path-19" data-name="Path"
                    d="M0,.545A.541.541,0,0,1,.537,0H28.382a.541.541,0,0,1,.537.545.541.541,0,0,1-.537.545H.537A.541.541,0,0,1,0,.545Z"
                    transform="translate(9.985 13.345)" />
                <path id="Path-20" data-name="Path"
                    d="M0,.545A.541.541,0,0,1,.537,0H28.382a.541.541,0,0,1,.537.545.541.541,0,0,1-.537.545H.537A.541.541,0,0,1,0,.545Z"
                    transform="translate(9.985 22.725)" />
                <path id="Path-21" data-name="Path"
                    d="M0,.545A.541.541,0,0,1,.537,0H28.382a.541.541,0,0,1,.537.545.541.541,0,0,1-.537.545H.537A.541.541,0,0,1,0,.545Z"
                    transform="translate(9.985 25.615)" />
                <path id="Path-22" data-name="Path"
                    d="M0,.545A.541.541,0,0,1,.537,0H28.382a.541.541,0,0,1,.537.545.541.541,0,0,1-.537.545H.537A.541.541,0,0,1,0,.545Z"
                    transform="translate(9.985 28.506)" />
                <path id="Path-23" data-name="Path"
                    d="M0,.545A.541.541,0,0,1,.537,0H17.221a.541.541,0,0,1,.537.545.541.541,0,0,1-.537.545H.537A.541.541,0,0,1,0,.545Z"
                    transform="translate(9.985 31.337)" />
                <path id="Path-24" data-name="Path"
                    d="M0,.545A.541.541,0,0,1,.537,0h15.2a.541.541,0,0,1,.537.545.541.541,0,0,1-.537.545H.537A.541.541,0,0,1,0,.545Z"
                    transform="translate(9.985 16.171)" />
                <path id="Path-25" data-name="Path"
                    d="M0,.545A.541.541,0,0,1,.537,0H8.3a.541.541,0,0,1,.537.545A.541.541,0,0,1,8.3,1.09H.537A.541.541,0,0,1,0,.545Z"
                    transform="translate(9.985 42.067)" />
                <path id="Shape-7" data-name="Shape"
                    d="M4.661,7.681a1.057,1.057,0,0,1-.64-.214L2.867,6.6l-1.154.868a1.055,1.055,0,0,1-.639.214,1.066,1.066,0,0,1-.483-.117A1.086,1.086,0,0,1,0,6.591V1.09A1.091,1.091,0,0,1,.315.319,1.059,1.059,0,0,1,1.074,0H4.661A1.083,1.083,0,0,1,5.735,1.09v5.5a1.086,1.086,0,0,1-.591.973A1.066,1.066,0,0,1,4.661,7.681ZM2.867,5.243h0L4.661,6.591V1.09H1.074v5.5L2.867,5.244Z"
                    transform="translate(31.414 39.346)" />
                <path id="Path-26" data-name="Path"
                    d="M8.177,4.149c0,.522-.6.8-.776,1.263s.074,1.112-.246,1.481c-.389.447-1.086.293-1.63.537-.505.227-.849.867-1.436.867s-.931-.641-1.436-.867c-.544-.244-1.241-.091-1.63-.537C.7,6.525.952,5.88.776,5.413S0,4.671,0,4.149s.6-.8.776-1.263C.932,2.471.645,1.87.916,1.531c.361-.45.814-.307,1.329-.572C2.8.675,3.426,0,4.089,0S5.378.675,5.932.959c.515.265.968.122,1.329.572.272.338-.016.94.141,1.354C7.575,3.346,8.177,3.627,8.177,4.149Z"
                    transform="translate(30.306 34.772)" fill="#fff" />
                <path id="Shape-8" data-name="Shape"
                    d="M4.626,9.388a1.673,1.673,0,0,1-1.093-.475c-.07-.059-.119-.1-.162-.142l-.018-.016c-.045-.04-.088-.077-.145-.124a1.088,1.088,0,0,0-.235-.157,1.84,1.84,0,0,0-.5-.116l-.022,0-.221-.034A1.7,1.7,0,0,1,1.156,7.8,1.549,1.549,0,0,1,.845,6.734c0-.052,0-.1,0-.139,0-.086,0-.158,0-.234a.705.705,0,0,0-.033-.209A.651.651,0,0,0,.7,5.987c-.043-.053-.084-.1-.131-.149L.565,5.829.532,5.792l-.07-.077A1.539,1.539,0,0,1,0,4.694,1.539,1.539,0,0,1,.462,3.673l.071-.079.033-.036C.615,3.5.658,3.458.7,3.4a.657.657,0,0,0,.107-.165.429.429,0,0,0,.014-.142c0-.07-.006-.138-.013-.228,0-.031,0-.064-.008-.1a.106.106,0,0,0,0-.013,1.419,1.419,0,0,1,.234-1.021,1.529,1.529,0,0,1,.9-.542c.075-.018.139-.032.2-.045l.009,0a1.451,1.451,0,0,0,.4-.126A3.159,3.159,0,0,0,2.905.786L2.984.731,3.028.7c.11-.079.227-.162.342-.238A2.337,2.337,0,0,1,4.626,0,2.337,2.337,0,0,1,5.882.461C6,.537,6.113.62,6.223.7L6.267.73l.079.056a3.16,3.16,0,0,0,.365.232,1.456,1.456,0,0,0,.4.126h.007c.06.013.124.027.2.045a1.53,1.53,0,0,1,.9.542,1.413,1.413,0,0,1,.233,1.021.1.1,0,0,1,0,.013c0,.037-.005.07-.008.1l0,.023c-.006.079-.011.141-.011.2a.429.429,0,0,0,.014.142.644.644,0,0,0,.107.165c.046.057.089.1.139.158l.031.034.072.08a1.539,1.539,0,0,1,.462,1.021A1.539,1.539,0,0,1,8.79,5.714l-.07.077-.033.037-.008.008c-.048.052-.089.1-.131.149a.637.637,0,0,0-.107.165.719.719,0,0,0-.033.209c0,.074,0,.144,0,.225V6.6c0,.042,0,.087,0,.139A1.55,1.55,0,0,1,8.095,7.8a1.7,1.7,0,0,1-1.073.522l-.231.036-.012,0a1.84,1.84,0,0,0-.5.116,1.1,1.1,0,0,0-.235.157c-.062.051-.106.09-.162.14s-.093.083-.163.142A1.669,1.669,0,0,1,4.626,9.388Zm0-8.3a1.329,1.329,0,0,0-.669.284c-.1.065-.19.131-.293.2l-.054.038-.093.066a4.207,4.207,0,0,1-.492.308,2.854,2.854,0,0,1-.737.238l-.035.008-.068.015a.482.482,0,0,0-.309.163,1.258,1.258,0,0,0,0,.27V2.7c0,.015,0,.032,0,.049.008.093.018.22.019.338a1.5,1.5,0,0,1-.085.537,1.7,1.7,0,0,1-.282.471c-.064.078-.142.164-.206.233l0,0-.014.016L1.258,4.4c-.162.181-.184.248-.184.289s.022.108.184.289l.066.072.015.017c.06.065.134.147.193.22a1.658,1.658,0,0,1,.282.471,1.8,1.8,0,0,1,.1.545c.005.107,0,.227,0,.323v.02c0,.031,0,.06,0,.085,0,.255.027.324.043.342.057.066.154.12.44.167l.139.02a3.227,3.227,0,0,1,.866.212,2.161,2.161,0,0,1,.474.3c.065.053.152.129.228.2l.112.1c.217.184.319.222.405.222s.188-.038.405-.222l.112-.1.01-.009c.073-.064.155-.136.218-.187a2.184,2.184,0,0,1,.475-.3,3.22,3.22,0,0,1,.864-.212l.14-.021c.286-.047.383-.1.44-.167a.758.758,0,0,0,.043-.342c0-.027,0-.059,0-.093V6.63c0-.1,0-.216,0-.323a1.793,1.793,0,0,1,.1-.545,1.658,1.658,0,0,1,.282-.471c.059-.073.133-.154.192-.218l.016-.018.066-.073c.162-.182.184-.248.184-.289s-.022-.107-.184-.289c-.018-.021-.041-.046-.066-.073l-.016-.017c-.059-.065-.133-.146-.192-.219a1.7,1.7,0,0,1-.282-.471,1.475,1.475,0,0,1-.085-.537c0-.111.01-.23.018-.325V2.75c0-.016,0-.031,0-.045l0-.022a1.294,1.294,0,0,0,0-.266v0a.483.483,0,0,0-.309-.163L7,2.235l-.035-.008a2.854,2.854,0,0,1-.737-.238,4.193,4.193,0,0,1-.492-.308l-.091-.065-.056-.04c-.1-.073-.2-.139-.293-.2A1.333,1.333,0,0,0,4.626,1.09Z"
                    transform="translate(29.769 34.228)" />
                <path id="Shape-9" data-name="Shape"
                    d="M2.075,4.244A2.1,2.1,0,0,1,0,2.122,2.1,2.1,0,0,1,2.075,0,2.1,2.1,0,0,1,4.151,2.122,2.1,2.1,0,0,1,2.075,4.244Zm0-3.4A1.26,1.26,0,0,0,.834,2.122,1.26,1.26,0,0,0,2.075,3.4,1.26,1.26,0,0,0,3.316,2.122,1.26,1.26,0,0,0,2.075.847Z"
                    transform="translate(32.263 36.736)" />
            </g>
        </g>
        <g id="Scroll" transform="matrix(0.766, -0.643, 0.643, 0.766, 181.83, 124.041)"
            opacity="0.2">
            <g id="Scroll-2" data-name="Scroll" transform="translate(0 0)">
                <path id="Path-27" data-name="Path"
                    d="M0,3.141A2.964,2.964,0,0,1,3.145.008C7.464.329,15.056.827,20.566.827s13.1-.5,17.421-.819a2.964,2.964,0,0,1,3.141,3.133c-.049.945-.086,1.94-.086,2.774s.037,1.829.086,2.774a2.964,2.964,0,0,1-3.141,3.133C33.668,11.5,26.076,11,20.566,11s-13.1.5-17.421.819A2.964,2.964,0,0,1,0,8.689C.053,7.744.09,6.749.09,5.915S.053,4.086,0,3.141Z"
                    transform="translate(0.714 0.719)" fill="#fff" />
                <path id="Shape-10" data-name="Shape"
                    d="M38.92,13.269c-.09,0-.181,0-.271-.01-4.109-.305-11.83-.817-17.369-.817s-13.26.512-17.368.817c-.09.007-.181.01-.271.01a3.576,3.576,0,0,1-2.624-1.143A3.728,3.728,0,0,1,.005,9.371C.061,8.28.09,7.36.09,6.634S.061,4.989.005,3.9A3.728,3.728,0,0,1,1.016,1.143,3.577,3.577,0,0,1,3.64,0c.09,0,.181,0,.271.01C8.016.315,15.73.827,21.28.827S34.544.315,38.649.01C38.739,0,38.83,0,38.92,0a3.576,3.576,0,0,1,2.624,1.143A3.729,3.729,0,0,1,42.555,3.9c-.056,1.095-.085,2.015-.085,2.736s.029,1.642.085,2.736a3.729,3.729,0,0,1-1.012,2.755A3.576,3.576,0,0,1,38.92,13.269ZM21.28,11.723c5.573,0,13.307.513,17.421.819.072.005.145.008.217.008a2.876,2.876,0,0,0,2.109-.92,2.986,2.986,0,0,0,.815-2.221c-.057-1.106-.086-2.039-.086-2.774s.029-1.668.086-2.774a2.986,2.986,0,0,0-.815-2.221,2.877,2.877,0,0,0-2.11-.92c-.072,0-.144,0-.216.008-4.116.306-11.852.819-17.421.819S7.975,1.033,3.859.727C3.787.722,3.714.719,3.643.719a2.877,2.877,0,0,0-2.11.92A2.985,2.985,0,0,0,.718,3.861C.775,4.966.8,5.9.8,6.634S.775,8.3.718,9.408a2.985,2.985,0,0,0,.815,2.221,2.876,2.876,0,0,0,2.109.92c.072,0,.145,0,.216-.008C7.973,12.236,15.707,11.723,21.28,11.723Z"
                    transform="translate(0 0)" />
                <path id="Path-28" data-name="Path"
                    d="M.262.661A.711.711,0,0,1,.971,0H7.545a.711.711,0,0,1,.708.661c.088,1.223.262,3.886.262,5.766s-.174,4.542-.262,5.766a.711.711,0,0,1-.708.661H.971a.711.711,0,0,1-.708-.661C.174,10.97,0,8.307,0,6.427S.174,1.885.262.661Z"
                    transform="translate(17.639 0.235)" />
                <path id="Path-29" data-name="Path" d="M0,0H3.228V5.758L1.614,4.132,0,5.758Z"
                    transform="translate(20.179 9.961)" fill="#fff" />
                <path id="Shape-11" data-name="Shape"
                    d="M3.942,7.2a.708.708,0,0,1-.505-.211L2.328,5.868,1.219,6.985a.71.71,0,0,1-.778.156A.717.717,0,0,1,0,6.477V.719A.717.717,0,0,1,.714,0H3.942a.717.717,0,0,1,.714.719V6.477a.717.717,0,0,1-.441.664A.7.7,0,0,1,3.942,7.2ZM2.328,4.851h0L3.942,6.477V.719H.714V6.477L2.328,4.851Z"
                    transform="translate(19.466 9.242)" />
                <path id="Path-30" data-name="Path"
                    d="M7.359,3.706c0,.466-.542.718-.7,1.129s.067.994-.222,1.323c-.35.4-.977.262-1.467.48-.455.2-.764.775-1.293.775s-.838-.572-1.293-.775C1.9,6.42,1.27,6.557.92,6.158.631,5.829.857,5.253.7,4.835S0,4.173,0,3.706s.542-.718.7-1.129C.839,2.207.58,1.67.825,1.368c.325-.4.732-.275,1.2-.511C2.519.6,3.083,0,3.679,0S4.84.6,5.338.857c.464.236.871.109,1.2.511.244.3-.014.839.127,1.21C6.817,2.989,7.359,3.24,7.359,3.706Z"
                    transform="translate(18.216 4.903)" fill="#fff" />
                <path id="Shape-12" data-name="Shape"
                    d="M4.037,8.132a1.4,1.4,0,0,1-.9-.395c-.051-.042-.092-.078-.128-.11l-.014-.012L2.979,7.6c-.045-.039-.087-.076-.14-.119a1.117,1.117,0,0,0-.24-.158A1.843,1.843,0,0,0,2.1,7.212l-.041-.006L1.9,7.18a1.4,1.4,0,0,1-.891-.425A1.265,1.265,0,0,1,.76,5.889c0-.043,0-.082,0-.119V5.75c0-.073,0-.135,0-.2a.742.742,0,0,0-.038-.226A.686.686,0,0,0,.6,5.139c-.044-.054-.087-.1-.133-.15L.466,4.983.383,4.892A1.216,1.216,0,0,1,0,4.066,1.253,1.253,0,0,1,.383,3.24l.089-.1c.046-.049.089-.1.133-.15a.679.679,0,0,0,.117-.183.492.492,0,0,0,.021-.172C.742,2.567.737,2.5.73,2.42c0-.014,0-.028,0-.043l0-.043v0A1.15,1.15,0,0,1,.9,1.5a1.26,1.26,0,0,1,.74-.441l.149-.033.017,0A1.51,1.51,0,0,0,2.217.9,3.171,3.171,0,0,0,2.56.68L2.625.634l0,0L2.673.6c.107-.076.2-.144.3-.208A2,2,0,0,1,4.037,0,2,2,0,0,1,5.1.392c.1.064.195.132.3.208l.045.032,0,0L5.513.68A3.143,3.143,0,0,0,5.856.9a1.5,1.5,0,0,0,.4.127l.021,0,.146.033a1.26,1.26,0,0,1,.74.441,1.147,1.147,0,0,1,.182.829v0c0,.03,0,.059-.007.086-.007.079-.012.148-.013.217a.5.5,0,0,0,.021.172.679.679,0,0,0,.117.183c.044.054.087.1.133.15l.089.1a1.253,1.253,0,0,1,.383.826,1.216,1.216,0,0,1-.383.826l-.083.091L7.6,4.99c-.046.049-.089.1-.133.15a.686.686,0,0,0-.117.183.742.742,0,0,0-.038.226c0,.071,0,.137,0,.215v.125a1.269,1.269,0,0,1-.249.867,1.4,1.4,0,0,1-.891.425l-.162.025-.042.006a1.843,1.843,0,0,0-.494.115,1.128,1.128,0,0,0-.24.158c-.053.043-.1.08-.14.119l-.013.011-.014.012c-.036.032-.077.068-.128.11A1.4,1.4,0,0,1,4.037,8.132Zm0-7.413a1.3,1.3,0,0,0-.671.275c-.092.06-.18.122-.27.186l-.066.046-.063.045a3.757,3.757,0,0,1-.428.266,2.441,2.441,0,0,1-.624.2h0l-.016,0-.087.019a.556.556,0,0,0-.352.2c-.019.023-.041.082-.023.325l0,.022,0,.041v0c.007.084.015.188.016.285a1.2,1.2,0,0,1-.068.434,1.4,1.4,0,0,1-.233.385c-.058.07-.128.146-.179.2l-.017.019-.047.051c-.144.161-.2.254-.2.344s.054.183.2.344l.047.051.017.019c.051.055.121.131.179.2a1.4,1.4,0,0,1,.233.385,1.468,1.468,0,0,1,.084.448c0,.093,0,.193,0,.28v.013c0,.029,0,.057,0,.083,0,.256.028.341.07.39a.732.732,0,0,0,.47.191l.136.02h0a2.791,2.791,0,0,1,.735.178,1.821,1.821,0,0,1,.4.255c.057.046.125.105.2.167l.108.094a.713.713,0,0,0,.446.228.713.713,0,0,0,.445-.228l.084-.072.024-.021L4.6,7.086c.062-.054.133-.116.189-.162a1.821,1.821,0,0,1,.4-.255,2.791,2.791,0,0,1,.735-.178h0l.136-.02a.734.734,0,0,0,.471-.191c.043-.049.071-.134.07-.39,0-.025,0-.053,0-.082V5.794c0-.088,0-.188,0-.28a1.468,1.468,0,0,1,.084-.448,1.4,1.4,0,0,1,.233-.385c.058-.07.128-.146.179-.2l.017-.019.047-.051c.144-.161.2-.254.2-.344s-.054-.183-.2-.344l-.047-.051L7.1,3.652c-.051-.055-.121-.131-.179-.2a1.4,1.4,0,0,1-.233-.385,1.187,1.187,0,0,1-.068-.434c0-.1.009-.2.016-.285v0l0-.041,0-.023c.018-.243,0-.3-.023-.325a.556.556,0,0,0-.352-.2l-.087-.019-.016,0h0a2.441,2.441,0,0,1-.624-.2,3.757,3.757,0,0,1-.428-.266l-.063-.045L4.977,1.18c-.089-.064-.177-.126-.27-.186A1.3,1.3,0,0,0,4.037.719Z"
                    transform="translate(17.859 4.543)" />
                <path id="Shape-13" data-name="Shape"
                    d="M2.15,4.37A2.17,2.17,0,0,1,0,2.185,2.17,2.17,0,0,1,2.15,0,2.171,2.171,0,0,1,4.3,2.185,2.17,2.17,0,0,1,2.15,4.37Zm0-3.651A1.453,1.453,0,0,0,.714,2.185,1.453,1.453,0,0,0,2.15,3.651,1.453,1.453,0,0,0,3.587,2.185,1.453,1.453,0,0,0,2.15.719Z"
                    transform="translate(19.747 6.424)" />
                <path id="Path-31" data-name="Path"
                    d="M.649,6.806a.358.358,0,0,1-.357-.36C.292,4.766.175,1.933,0,.4A.357.357,0,1,1,.712.319c.177,1.569.294,4.431.294,6.127A.358.358,0,0,1,.649,6.806Z"
                    transform="translate(35.557 0.378)" />
                <path id="Path-32" data-name="Path"
                    d="M.649,4.293a.358.358,0,0,1-.357-.36A19.756,19.756,0,0,0,0,.419.357.357,0,1,1,.709.3a20.478,20.478,0,0,1,.3,3.633A.358.358,0,0,1,.649,4.293Z"
                    transform="translate(33.042 0.574)" />
                <path id="Path-33" data-name="Path"
                    d="M.649,4.293a.358.358,0,0,1-.357-.36A19.756,19.756,0,0,0,0,.419.357.357,0,1,1,.709.3a20.478,20.478,0,0,1,.3,3.633A.358.358,0,0,1,.649,4.293Z"
                    transform="translate(26.844 0.77)" />
                <path id="Path-34" data-name="Path"
                    d="M.357,0A.358.358,0,0,1,.714.36,19.757,19.757,0,0,0,1,3.874a.357.357,0,1,1-.7.118A20.478,20.478,0,0,1,0,.36.358.358,0,0,1,.357,0Z"
                    transform="translate(15.891 8.135)" />
                <path id="Path-35" data-name="Path"
                    d="M.357,4.293a.358.358,0,0,0,.357-.36A19.756,19.756,0,0,1,1,.419.357.357,0,1,0,.3.3,20.474,20.474,0,0,0,0,3.933.358.358,0,0,0,.357,4.293Z"
                    transform="translate(7.944 0.458)" />
                <path id="Path-36" data-name="Path"
                    d="M.357,0A.358.358,0,0,1,.714.36,25.625,25.625,0,0,0,1.1,5.065.357.357,0,1,1,.4,5.2,26.343,26.343,0,0,1,0,.36.358.358,0,0,1,.357,0Z"
                    transform="translate(5.52 7.348)" />
            </g>
        </g>
        <g id="Calculator" transform="matrix(0.883, -0.469, 0.469, 0.883, 237.523, 95.848)"
            opacity="0.2">
            <g id="Calculator-2" data-name="Calculator" transform="translate(0 0)">
                <path id="Path-37" data-name="Path"
                    d="M0,3.638A3.639,3.639,0,0,1,3.641,0h27.4a3.639,3.639,0,0,1,3.64,3.638V40.713a3.639,3.639,0,0,1-3.64,3.638H3.641A3.639,3.639,0,0,1,0,40.713Z"
                    transform="translate(3.337 3.335)" />
                <path id="Path-38" data-name="Path"
                    d="M0,3.638A3.639,3.639,0,0,1,3.641,0h27.4a3.639,3.639,0,0,1,3.641,3.638V40.713a3.639,3.639,0,0,1-3.641,3.638H3.641A3.639,3.639,0,0,1,0,40.713Z"
                    transform="translate(0.91 0.909)" fill="#fff" />
                <path id="Shape-14" data-name="Shape"
                    d="M31.947,46.17H4.551A4.554,4.554,0,0,1,0,41.622V4.547A4.554,4.554,0,0,1,4.551,0h27.4A4.554,4.554,0,0,1,36.5,4.547V41.622A4.554,4.554,0,0,1,31.947,46.17ZM4.551.91A3.643,3.643,0,0,0,.91,4.547V41.622A3.643,3.643,0,0,0,4.551,45.26h27.4a3.643,3.643,0,0,0,3.641-3.638V4.547A3.643,3.643,0,0,0,31.947.91Z"
                    transform="translate(0 0)" />
                <path id="Path-39" data-name="Path"
                    d="M0,1.819A1.82,1.82,0,0,1,1.82,0h23.1a1.82,1.82,0,0,1,1.82,1.819V6.081A1.82,1.82,0,0,1,24.924,7.9H1.82A1.82,1.82,0,0,1,0,6.081Z"
                    transform="translate(5.115 4.981)" />
                <path id="Shape-15" data-name="Shape"
                    d="M5.722,4.453H1.82A1.822,1.822,0,0,1,0,2.634V1.819A1.822,1.822,0,0,1,1.82,0h3.9a1.822,1.822,0,0,1,1.82,1.819v.815A1.822,1.822,0,0,1,5.722,4.453ZM1.82.91a.911.911,0,0,0-.91.91v.815a.911.911,0,0,0,.91.91h3.9a.911.911,0,0,0,.91-.91V1.819a.911.911,0,0,0-.91-.91Z"
                    transform="translate(4.898 16.094)" />
                <path id="Shape-16" data-name="Shape"
                    d="M5.722,4.453H1.82A1.822,1.822,0,0,1,0,2.634V1.819A1.822,1.822,0,0,1,1.82,0h3.9a1.822,1.822,0,0,1,1.82,1.819v.815A1.822,1.822,0,0,1,5.722,4.453ZM1.82.91a.911.911,0,0,0-.91.91v.815a.911.911,0,0,0,.91.91h3.9a.911.911,0,0,0,.91-.91V1.819a.911.911,0,0,0-.91-.91Z"
                    transform="translate(4.898 22.504)" />
                <path id="Shape-17" data-name="Shape"
                    d="M5.722,4.453H1.82A1.822,1.822,0,0,1,0,2.634V1.819A1.822,1.822,0,0,1,1.82,0h3.9a1.821,1.821,0,0,1,1.82,1.819v.815A1.822,1.822,0,0,1,5.722,4.453ZM1.82.91a.911.911,0,0,0-.91.909v.815a.911.911,0,0,0,.91.91h3.9a.911.911,0,0,0,.91-.91V1.819A.91.91,0,0,0,5.722.91Z"
                    transform="translate(4.898 29.26)" />
                <path id="Shape-18" data-name="Shape"
                    d="M5.722,4.453H1.82A1.822,1.822,0,0,1,0,2.634V1.819A1.822,1.822,0,0,1,1.82,0h3.9a1.822,1.822,0,0,1,1.82,1.819v.815A1.822,1.822,0,0,1,5.722,4.453ZM1.82.91a.911.911,0,0,0-.91.91v.815a.911.911,0,0,0,.91.91h3.9a.911.911,0,0,0,.91-.91V1.819a.911.911,0,0,0-.91-.91Z"
                    transform="translate(4.898 36.017)" />
                <path id="Shape-19" data-name="Shape"
                    d="M5.722,4.453H1.82A1.822,1.822,0,0,1,0,2.634V1.819A1.822,1.822,0,0,1,1.82,0h3.9a1.822,1.822,0,0,1,1.82,1.819v.815A1.822,1.822,0,0,1,5.722,4.453ZM1.82.91a.911.911,0,0,0-.91.91v.815a.911.911,0,0,0,.91.91h3.9a.911.911,0,0,0,.91-.91V1.819a.911.911,0,0,0-.91-.91Z"
                    transform="translate(14.954 16.094)" />
                <path id="Shape-20" data-name="Shape"
                    d="M5.722,4.453H1.82A1.822,1.822,0,0,1,0,2.634V1.819A1.822,1.822,0,0,1,1.82,0h3.9a1.822,1.822,0,0,1,1.82,1.819v.815A1.822,1.822,0,0,1,5.722,4.453ZM1.82.91a.911.911,0,0,0-.91.91v.815a.911.911,0,0,0,.91.91h3.9a.911.911,0,0,0,.91-.91V1.819a.911.911,0,0,0-.91-.91Z"
                    transform="translate(14.954 22.504)" />
                <path id="Shape-21" data-name="Shape"
                    d="M5.722,4.453H1.82A1.822,1.822,0,0,1,0,2.634V1.819A1.822,1.822,0,0,1,1.82,0h3.9a1.821,1.821,0,0,1,1.82,1.819v.815A1.822,1.822,0,0,1,5.722,4.453ZM1.82.91a.911.911,0,0,0-.91.909v.815a.911.911,0,0,0,.91.91h3.9a.911.911,0,0,0,.91-.91V1.819A.91.91,0,0,0,5.722.91Z"
                    transform="translate(14.954 29.26)" />
                <path id="Shape-22" data-name="Shape"
                    d="M5.722,4.453H1.82A1.822,1.822,0,0,1,0,2.634V1.819A1.822,1.822,0,0,1,1.82,0h3.9a1.822,1.822,0,0,1,1.82,1.819v.815A1.822,1.822,0,0,1,5.722,4.453ZM1.82.91a.911.911,0,0,0-.91.91v.815a.911.911,0,0,0,.91.91h3.9a.911.911,0,0,0,.91-.91V1.819a.911.911,0,0,0-.91-.91Z"
                    transform="translate(14.954 36.017)" />
                <path id="Shape-23" data-name="Shape"
                    d="M5.722,4.453H1.82A1.822,1.822,0,0,1,0,2.634V1.819A1.822,1.822,0,0,1,1.82,0h3.9a1.822,1.822,0,0,1,1.82,1.819v.815A1.822,1.822,0,0,1,5.722,4.453ZM1.82.91a.911.911,0,0,0-.91.91v.815a.911.911,0,0,0,.91.91h3.9a.911.911,0,0,0,.91-.91V1.819a.911.911,0,0,0-.91-.91Z"
                    transform="translate(24.751 16.094)" />
                <path id="Shape-24" data-name="Shape"
                    d="M5.722,17.966H1.82A1.822,1.822,0,0,1,0,16.147V1.819A1.822,1.822,0,0,1,1.82,0h3.9a1.822,1.822,0,0,1,1.82,1.819V16.147A1.821,1.821,0,0,1,5.722,17.966ZM1.82.91a.911.911,0,0,0-.91.909V16.147a.911.911,0,0,0,.91.91h3.9a.911.911,0,0,0,.91-.91V1.819a.911.911,0,0,0-.91-.91Z"
                    transform="translate(24.23 22.504)" />
                <path id="Path-40" data-name="Path"
                    d="M0,.455A.455.455,0,0,1,.455,0H2.362a.455.455,0,1,1,0,.909H.455A.455.455,0,0,1,0,.455Z"
                    transform="translate(26.593 30.097)" />
                <path id="Path-41" data-name="Path"
                    d="M0,.455A.455.455,0,0,1,.455,0H2.362a.455.455,0,1,1,0,.909H.455A.455.455,0,0,1,0,.455Z"
                    transform="translate(26.593 31.787)" />
                <path id="Shape-25" data-name="Shape"
                    d="M1.673,4.786h-.4A1.275,1.275,0,0,1,0,3.512V1.273A1.275,1.275,0,0,1,1.274,0h.4A1.275,1.275,0,0,1,2.948,1.273V3.512A1.275,1.275,0,0,1,1.673,4.786ZM1.274.91a.364.364,0,0,0-.364.364V3.512a.364.364,0,0,0,.364.364h.4a.365.365,0,0,0,.364-.364V1.273A.364.364,0,0,0,1.673.91Z"
                    transform="translate(26.593 6.428)" fill="#fff" />
            </g>
        </g>
        <g id="Diploma" transform="matrix(0.978, 0.208, -0.208, 0.978, 318.104, 154.688)"
            opacity="0.3">
            <g id="Diploma-2" data-name="Diploma" transform="translate(0 0)">
                <path id="Path-42" data-name="Path"
                    d="M0,.781A.781.781,0,0,1,.781,0h37.5a.781.781,0,0,1,.781.781V24.968a.781.781,0,0,1-.781.781H.781A.781.781,0,0,1,0,24.968Z"
                    transform="translate(2.708 2.775)" />
                <path id="Path-43" data-name="Path"
                    d="M0,.781A.781.781,0,0,1,.781,0h37.5a.781.781,0,0,1,.781.781V24.968a.781.781,0,0,1-.781.781H.781A.781.781,0,0,1,0,24.968Z"
                    transform="translate(0.781 0.781)" fill="#fff" />
                <path id="Shape-26" data-name="Shape"
                    d="M39.061,27.31H1.561A1.563,1.563,0,0,1,0,25.749V1.561A1.563,1.563,0,0,1,1.561,0h37.5a1.563,1.563,0,0,1,1.562,1.561V25.749A1.563,1.563,0,0,1,39.061,27.31ZM1.561.781a.782.782,0,0,0-.781.781V25.749a.782.782,0,0,0,.781.781h37.5a.782.782,0,0,0,.781-.781V1.561a.782.782,0,0,0-.781-.781Z"
                    transform="translate(0 0)" />
                <path id="Path-44" data-name="Path"
                    d="M0,.39A.39.39,0,0,1,.39,0H26.665a.39.39,0,1,1,0,.781H.39A.39.39,0,0,1,0,.39Z"
                    transform="translate(6.784 9.689)" />
                <path id="Path-45" data-name="Path"
                    d="M0,.39A.39.39,0,0,1,.39,0H9.849a.39.39,0,1,1,0,.781H.39A.39.39,0,0,1,0,.39Z"
                    transform="translate(14.841 5.295)" />
                <path id="Path-46" data-name="Path"
                    d="M0,.39A.39.39,0,0,1,.39,0H26.665a.39.39,0,1,1,0,.781H.39A.39.39,0,0,1,0,.39Z"
                    transform="translate(6.784 11.703)" />
                <path id="Path-47" data-name="Path"
                    d="M0,.39A.39.39,0,0,1,.39,0H26.665a.39.39,0,1,1,0,.781H.39A.39.39,0,0,1,0,.39Z"
                    transform="translate(6.784 14.075)" />
                <path id="Path-48" data-name="Path"
                    d="M0,.39A.39.39,0,0,1,.39,0H26.665a.39.39,0,1,1,0,.781H.39A.39.39,0,0,1,0,.39Z"
                    transform="translate(6.784 16.44)" />
                <path id="Path-49" data-name="Path"
                    d="M0,.39A.39.39,0,0,1,.39,0H12.652a.39.39,0,0,1,0,.781H.39A.39.39,0,0,1,0,.39Z"
                    transform="translate(6.784 18.63)" />
                <path id="Path-50" data-name="Path" d="M0,0H4.2V7.444l-2.1-2.1L0,7.444Z"
                    transform="translate(31.211 22.042)" fill="#fff" />
                <path id="Shape-27" data-name="Shape"
                    d="M4.985,9.006a.776.776,0,0,1-.552-.229l-1.55-1.55-1.55,1.55A.781.781,0,0,1,0,8.225V.781A.782.782,0,0,1,.781,0h4.2a.782.782,0,0,1,.781.781V8.225a.781.781,0,0,1-.781.781Zm-2.1-2.883h0l2.1,2.1V.781H.781V8.225l2.1-2.1Z"
                    transform="translate(30.43 21.262)" />
                <path id="Path-51" data-name="Path"
                    d="M6.831,3.459A3.438,3.438,0,0,1,3.416,6.919,3.438,3.438,0,0,1,0,3.459,3.438,3.438,0,0,1,3.416,0,3.438,3.438,0,0,1,6.831,3.459Z"
                    transform="translate(30.033 18.822)" fill="#fff" />
                <path id="Shape-28" data-name="Shape"
                    d="M4.2,8.48A4.25,4.25,0,0,1,1.226,1.245a4.166,4.166,0,0,1,5.942,0A4.25,4.25,0,0,1,4.2,8.48Zm0-7.7A3.46,3.46,0,0,0,4.2,7.7,3.46,3.46,0,0,0,4.2.781Z"
                    transform="translate(29.252 18.042)" />
                <path id="Shape-29" data-name="Shape"
                    d="M2.6,5.256A2.628,2.628,0,0,1,2.6,0a2.628,2.628,0,0,1,0,5.256ZM2.6.781a1.847,1.847,0,0,0,0,3.695A1.847,1.847,0,0,0,2.6.781Z"
                    transform="translate(30.844 19.654)" />
            </g>
        </g>
    </g>
</svg>
