<svg xmlns="http://www.w3.org/2000/svg" width="14.668" height="14.668" viewBox="0 0 14.668 14.668">
  <path id="check_circle_FILL1_wght400_GRAD0_opsz24" d="M8.307,10.654l-1.6-1.6a.673.673,0,0,0-.5-.2.7.7,0,0,0-.513.22.754.754,0,0,0,0,1.027l2.09,2.09a.754.754,0,0,0,1.027,0l4.162-4.162a.673.673,0,0,0,.2-.5.7.7,0,0,0-.22-.513.754.754,0,0,0-1.027,0Zm1.027,6.014a7.138,7.138,0,0,1-2.86-.578,7.318,7.318,0,0,1-3.9-3.9,7.367,7.367,0,0,1,0-5.721,7.323,7.323,0,0,1,3.9-3.9,7.376,7.376,0,0,1,5.721,0,7.323,7.323,0,0,1,3.9,3.9,7.367,7.367,0,0,1,0,5.721,7.318,7.318,0,0,1-3.9,3.9A7.138,7.138,0,0,1,9.334,16.668Z" transform="translate(-2 -2)" fill="#fcb727"/>
</svg>
