<svg xmlns="http://www.w3.org/2000/svg" width="21" height="19.522" viewBox="0 0 21 19.522">
  <path id="favorite_FILL1_wght400_GRAD0_opsz24" d="M12,21l-1.45-1.3a79.49,79.49,0,0,1-6.238-6.088A8.107,8.107,0,0,1,2,8.15a5.382,5.382,0,0,1,5.5-5.5,5.721,5.721,0,0,1,2.5.562A5.962,5.962,0,0,1,12,4.75a5.962,5.962,0,0,1,2-1.538,5.721,5.721,0,0,1,2.5-.562A5.382,5.382,0,0,1,22,8.15a8.107,8.107,0,0,1-2.312,5.462A79.49,79.49,0,0,1,13.45,19.7Z" transform="translate(-1.5 -2.15)" fill="#7291f9" stroke="#7291f9" stroke-width="1"/>
</svg>
