<svg xmlns="http://www.w3.org/2000/svg" width="20" height="20" viewBox="0 0 20 20">
  <path id="help_FILL1_wght400_GRAD0_opsz24" d="M12,22a9.671,9.671,0,0,1-3.875-.788,10.238,10.238,0,0,1-3.187-2.137A9.983,9.983,0,0,1,2.788,15.9,9.732,9.732,0,0,1,2,12a9.732,9.732,0,0,1,.788-3.9,9.983,9.983,0,0,1,2.15-3.175A10.252,10.252,0,0,1,8.125,2.787,9.681,9.681,0,0,1,12,2a9.805,9.805,0,0,1,3.925.787A10.106,10.106,0,0,1,19.1,4.925,9.967,9.967,0,0,1,22,12a9.967,9.967,0,0,1-2.9,7.075,10.092,10.092,0,0,1-3.175,2.137A9.794,9.794,0,0,1,12,22Zm-.95-7.85H12.9a3.629,3.629,0,0,1,.188-1.3,4.367,4.367,0,0,1,1.062-1.3,7.483,7.483,0,0,0,1.025-1.238A2.568,2.568,0,0,0,15.55,8.9a2.5,2.5,0,0,0-1.025-2.15A4,4,0,0,0,12.1,6a3.458,3.458,0,0,0-2.312.75A3.967,3.967,0,0,0,8.55,8.55l1.65.65a2.717,2.717,0,0,1,.563-.975A1.64,1.64,0,0,1,12.1,7.7a1.547,1.547,0,0,1,1.2.437,1.4,1.4,0,0,1,.4.963,1.625,1.625,0,0,1-.3.937,4.016,4.016,0,0,1-.75.813,6.22,6.22,0,0,0-1.35,1.475A4.553,4.553,0,0,0,11.05,14.15Zm.9,3.85a1.238,1.238,0,1,0-.888-.363A1.208,1.208,0,0,0,11.95,18Z" transform="translate(-2 -2)" fill="#7b3c9f"/>
</svg>
