<svg xmlns="http://www.w3.org/2000/svg" width="191.63" height="205.978" viewBox="0 0 191.63 205.978">
  <g id="Group_205" data-name="Group 205" transform="translate(-98.37 -55.95)">
    <path id="Path_134" data-name="Path 134" d="M2342.43,1428.342l4.088-.892,1.4,6.421-4.088.893Z" transform="translate(-2140.836 -1371.5)" fill="#fae0d8"/>
    <path id="Path_44" data-name="Path 44" d="M72.752,120.685c14.035,0,27.765-3.917,45.092-29.324s34.526-57.186,24.216-72.3C124.732-6.351,20.768-6.352,3.441,19.055S38.1,120.684,72.752,120.685Z" transform="matrix(0.799, 0.602, -0.602, 0.799, 171, 78.18)" fill="#fae0d8" opacity="0.5"/>
    <g id="Group_12" data-name="Group 12" transform="translate(183.004 102.426)">
      <path id="Path_17" data-name="Path 17" d="M10.568,6.135H26.244a1.568,1.568,0,0,0,0-3.135H10.568a1.568,1.568,0,0,0,0,3.135Z" transform="translate(6.676 3.27)" fill="#7291f9"/>
      <path id="Path_18" data-name="Path 18" d="M46.327,95.062H11.838A7.847,7.847,0,0,1,4,87.224V8.839A7.847,7.847,0,0,1,11.838,1H46.327a7.847,7.847,0,0,1,7.838,7.839,1.568,1.568,0,1,1-3.135,0,4.709,4.709,0,0,0-4.7-4.7H11.838a4.709,4.709,0,0,0-4.7,4.7V87.224a4.709,4.709,0,0,0,4.7,4.7H46.327a4.709,4.709,0,0,0,4.7-4.7V9.23a1.568,1.568,0,1,1,3.135,0V87.224A7.847,7.847,0,0,1,46.327,95.062Z" transform="translate(-4 -1.001)" fill="#7291f9"/>
    </g>
    <g id="_9" data-name="9" transform="translate(193.039 135.986)">
      <path id="Path_20" data-name="Path 20" d="M11.414,19.492a1.6,1.6,0,0,1-.43,0L2.916,16.8a1.435,1.435,0,0,1-.175-2.6l24.2-12.1A1.347,1.347,0,0,1,28.462,4.3L12.328,19.089A1.345,1.345,0,0,1,11.414,19.492ZM6.856,15.2l4.235,1.425,8.471-7.772Z" transform="translate(-1.994 -1.963)" fill="#7b3c9f"/>
      <path id="Path_21" data-name="Path 21" d="M23.756,27.545a1.344,1.344,0,0,1-.672-.175l-9.412-5.378a1.345,1.345,0,0,1-.511-1.8L22.573,2.711a1.345,1.345,0,0,1,2.528.632V26.2a1.345,1.345,0,0,1-.672,1.156A1.21,1.21,0,0,1,23.756,27.545Zm-7.61-7.234,6.266,3.577V8.721Z" transform="translate(1.798 -1.949)" fill="#7b3c9f"/>
      <path id="Path_22" data-name="Path 22" d="M12.033,28.887h-.175a1.345,1.345,0,0,1-1.116-.968L8.053,18.507a1.345,1.345,0,0,1,.376-1.345L24.564,2.373A1.345,1.345,0,0,1,26.661,4L17.249,21.479,13.216,28.2A1.345,1.345,0,0,1,12.033,28.887Zm-1.17-10.326,1.613,5.634,2.434-4.034L20.53,9.727Z" transform="translate(0.076 -1.947)" fill="#7b3c9f"/>
    </g>
    <rect id="Rectangle_36" data-name="Rectangle 36" width="4.486" height="4.486" transform="translate(219.84 213.961) rotate(-145.491)" fill="#7291f9"/>
    <rect id="Rectangle_37" data-name="Rectangle 37" width="4.187" height="6.572" transform="matrix(-0.824, 0.567, -0.567, -0.824, 121.861, 140.658)" fill="#ffc2c0"/>
    <rect id="Rectangle_38" data-name="Rectangle 38" width="4.187" height="6.571" transform="translate(158.705 182.961) rotate(-145.495)" fill="#7b3c9f"/>
    <rect id="Rectangle_39" data-name="Rectangle 39" width="4.187" height="6.571" transform="translate(175.119 94.715) rotate(-145.487)" fill="#7b3c9f"/>
    <rect id="Rectangle_40" data-name="Rectangle 40" width="9.32" height="9.323" transform="matrix(-0.214, -0.977, 0.977, -0.214, 118.303, 101.916)" fill="#7291f9"/>
    <rect id="Rectangle_41" data-name="Rectangle 41" width="9.32" height="9.323" transform="matrix(-0.214, -0.977, 0.977, -0.214, 241.518, 86.596)" fill="#ffc2c0"/>
    <rect id="Rectangle_42" data-name="Rectangle 42" width="6.258" height="6.258" transform="matrix(-0.213, -0.977, 0.977, -0.213, 283.887, 141.219)" fill="#3b3086"/>
    <rect id="Rectangle_43" data-name="Rectangle 43" width="6.571" height="4.187" transform="matrix(-0.213, -0.977, 0.977, -0.213, 272.932, 86.596)" fill="#7291f9"/>
    <path id="Path_134-2" data-name="Path 134" d="M2342.43,1428.342l4.088-.892,1.4,6.421-4.088.893Z" transform="translate(-2140.836 -1371.5)" fill="#fae0d8"/>
  </g>
</svg>
