<svg xmlns="http://www.w3.org/2000/svg" width="16" height="16" viewBox="0 0 16 16">
  <path id="person_FILL1_wght400_GRAD0_opsz24" d="M12,12a3.852,3.852,0,0,1-2.825-1.175A3.852,3.852,0,0,1,8,8,3.852,3.852,0,0,1,9.175,5.175a3.984,3.984,0,0,1,5.65,0A3.852,3.852,0,0,1,16,8a3.852,3.852,0,0,1-1.175,2.825A3.852,3.852,0,0,1,12,12ZM4,20V17.2a2.983,2.983,0,0,1,1.6-2.65,14.866,14.866,0,0,1,3.15-1.163,13.84,13.84,0,0,1,6.5,0A14.866,14.866,0,0,1,18.4,14.55,2.983,2.983,0,0,1,20,17.2V20Z" transform="translate(-4 -4)" fill="#7b3c9f"/>
</svg>
