<svg xmlns="http://www.w3.org/2000/svg" width="11.9" height="17" viewBox="0 0 11.9 17">
  <path id="pin_drop_FILL1_wght400_GRAD0_opsz24" d="M12,19a.832.832,0,0,1-.5-.163.9.9,0,0,1-.325-.437,10.78,10.78,0,0,0-1.45-2.962q-.875-1.213-1.688-2.313a15.147,15.147,0,0,1-1.4-2.288A6.455,6.455,0,0,1,6.05,7.95,5.746,5.746,0,0,1,7.775,3.725,5.746,5.746,0,0,1,12,2a5.746,5.746,0,0,1,4.225,1.725A5.746,5.746,0,0,1,17.95,7.95a6.464,6.464,0,0,1-.587,2.887,15.208,15.208,0,0,1-1.4,2.288q-.813,1.1-1.688,2.313a10.78,10.78,0,0,0-1.45,2.962.9.9,0,0,1-.325.437A.832.832,0,0,1,12,19Zm0-8.925A2.134,2.134,0,0,0,14.125,7.95,2.121,2.121,0,0,0,10.5,6.45a2.113,2.113,0,0,0,0,3A2.046,2.046,0,0,0,12,10.075Z" transform="translate(-6.05 -2)" fill="#7b3c9f"/>
</svg>
