<svg xmlns="http://www.w3.org/2000/svg" width="70" height="70" viewBox="0 0 70 70">
    <defs>
        <clipPath id="a">
            <circle  cx="35" cy="35" r="35" transform="translate(172 181)"
                fill="#fef9f7" />
        </clipPath>
    </defs>
    <g  transform="translate(-172 -181)" clip-path="url(#a)">
        <path
            d="M207 222.602a14.826 14.826 0 0 1-10.874-4.523 14.826 14.826 0 0 1-4.519-10.87 14.826 14.826 0 0 1 4.519-10.877A14.826 14.826 0 0 1 207 191.809a14.826 14.826 0 0 1 10.874 4.523 14.826 14.826 0 0 1 4.522 10.877 14.826 14.826 0 0 1-4.522 10.87A14.826 14.826 0 0 1 207 222.602Zm-30.793 30.793v-10.778a11.482 11.482 0 0 1 6.159-10.2 57.223 57.223 0 0 1 12.125-4.477 53.273 53.273 0 0 1 25.019 0 57.223 57.223 0 0 1 12.125 4.477 11.482 11.482 0 0 1 6.159 10.2v10.778Z"
            fill="#7b3c9f" />
    </g>
</svg>