<svg xmlns="http://www.w3.org/2000/svg" width="331" height="339" viewBox="0 0 331 339">
  <g id="Group_262" data-name="Group 262" transform="translate(-42 -300)">
    <rect id="Rectangle_16941" data-name="Rectangle 16941" width="331" height="339" rx="80" transform="translate(42 300)" fill="#7291f9" opacity="0.1"/>
    <rect id="Rectangle_16940" data-name="Rectangle 16940" width="299" height="305" rx="80" transform="translate(58 317)" fill="#7291f9" opacity="0.2"/>
    <rect id="Rectangle_16939" data-name="Rectangle 16939" width="257" height="261" rx="50" transform="translate(79 339)" fill="#7291f9" opacity="0.5"/>
    <g id="Group_235" data-name="Group 235" transform="translate(99.104 359.193)">
      <rect id="Rectangle_16917" data-name="Rectangle 16917" width="217" height="221" rx="15" transform="translate(-0.104 -0.193)" fill="#7291f9"/>
      <g id="qr-code-svgrepo-com" transform="translate(18.534 20.443)">
        <g id="Group_180" data-name="Group 180" transform="translate(17.877 17.877)">
          <g id="Group_179" data-name="Group 179">
            <rect id="Rectangle_16917-2" data-name="Rectangle 16917" width="17.877" height="17.877" fill="#fff"/>
          </g>
        </g>
        <g id="Group_182" data-name="Group 182" transform="translate(116.203)">
          <g id="Group_181" data-name="Group 181">
            <path id="Path_228" data-name="Path 228" d="M341.739,0V8.939H332.8v8.939h8.939V53.632h8.939v8.939h-8.939v8.939h17.877V53.632h26.816v8.939h8.939V0Zm44.693,44.693H350.677V8.939h35.755Z" transform="translate(-332.8)" fill="#fff"/>
          </g>
        </g>
        <g id="Group_184" data-name="Group 184" transform="translate(143.019 17.877)">
          <g id="Group_183" data-name="Group 183">
            <rect id="Rectangle_16918" data-name="Rectangle 16918" width="17.877" height="17.877" fill="#fff"/>
          </g>
        </g>
        <g id="Group_186" data-name="Group 186" transform="translate(17.877 143.019)">
          <g id="Group_185" data-name="Group 185">
            <rect id="Rectangle_16919" data-name="Rectangle 16919" width="17.877" height="17.877" fill="#fff"/>
          </g>
        </g>
        <g id="Group_188" data-name="Group 188" transform="translate(125.141 125.141)">
          <g id="Group_187" data-name="Group 187">
            <rect id="Rectangle_16920" data-name="Rectangle 16920" width="8.939" height="8.939" fill="#fff"/>
          </g>
        </g>
        <g id="Group_190" data-name="Group 190" transform="translate(80.448 169.834)">
          <g id="Group_189" data-name="Group 189">
            <rect id="Rectangle_16921" data-name="Rectangle 16921" width="8.939" height="8.939" fill="#fff"/>
          </g>
        </g>
        <g id="Group_192" data-name="Group 192" transform="translate(89.387 134.08)">
          <g id="Group_191" data-name="Group 191">
            <rect id="Rectangle_16922" data-name="Rectangle 16922" width="8.939" height="8.939" fill="#fff"/>
          </g>
        </g>
        <g id="Group_194" data-name="Group 194" transform="translate(89.387 151.957)">
          <g id="Group_193" data-name="Group 193">
            <rect id="Rectangle_16923" data-name="Rectangle 16923" width="8.939" height="8.939" fill="#fff"/>
          </g>
        </g>
        <g id="Group_196" data-name="Group 196" transform="translate(169.834 107.264)">
          <g id="Group_195" data-name="Group 195">
            <rect id="Rectangle_16924" data-name="Rectangle 16924" width="8.939" height="8.939" fill="#fff"/>
          </g>
        </g>
        <g id="Group_198" data-name="Group 198" transform="translate(0 107.264)">
          <g id="Group_197" data-name="Group 197">
            <rect id="Rectangle_16925" data-name="Rectangle 16925" width="8.939" height="8.939" fill="#fff"/>
          </g>
        </g>
        <g id="Group_200" data-name="Group 200" transform="translate(0 62.571)">
          <g id="Group_199" data-name="Group 199">
            <rect id="Rectangle_16926" data-name="Rectangle 16926" width="8.939" height="8.939" fill="#fff"/>
          </g>
        </g>
        <g id="Group_202" data-name="Group 202" transform="translate(80.448 8.939)">
          <g id="Group_201" data-name="Group 201">
            <path id="Path_229" data-name="Path 229" d="M248.277,25.6v8.939H230.4v8.939h26.816V25.6Z" transform="translate(-230.4 -25.6)" fill="#fff"/>
          </g>
        </g>
        <g id="Group_204" data-name="Group 204" transform="translate(62.571 71.509)">
          <g id="Group_203" data-name="Group 203">
            <path id="Path_230" data-name="Path 230" d="M286.464,204.8v8.939H268.587v8.939H241.771v-8.939h-8.939v8.939H214.955v8.939h26.816v8.939H214.955v-8.939h-8.939v8.939h-8.939v-8.939h-8.939v8.939H179.2v8.939h17.877v8.939h8.939v-8.939h17.877v8.939h-8.939v8.939h8.939v17.877h8.939v8.939h8.939v-8.939h26.816V267.371h8.939v-8.939h-8.939V240.555H250.709v-8.939h17.877v8.939h8.939v-8.939h8.939v-8.939H295.4V204.8Zm-26.816,44.693v26.816H232.832V249.493Z" transform="translate(-179.2 -204.8)" fill="#fff"/>
          </g>
        </g>
        <g id="Group_206" data-name="Group 206" transform="translate(98.325 53.632)">
          <g id="Group_205" data-name="Group 205">
            <path id="Path_231" data-name="Path 231" d="M299.477,153.6h-8.939v8.939H281.6v17.877h8.939v-8.939h8.939v-8.939h8.939V153.6Z" transform="translate(-281.6 -153.6)" fill="#fff"/>
          </g>
        </g>
        <g id="Group_208" data-name="Group 208" transform="translate(98.325 169.834)">
          <g id="Group_207" data-name="Group 207">
            <rect id="Rectangle_16927" data-name="Rectangle 16927" width="17.877" height="8.939" fill="#fff"/>
          </g>
        </g>
        <g id="Group_210" data-name="Group 210" transform="translate(71.509 8.939)">
          <g id="Group_209" data-name="Group 209">
            <rect id="Rectangle_16928" data-name="Rectangle 16928" width="8.939" height="8.939" fill="#fff"/>
          </g>
        </g>
        <g id="Group_212" data-name="Group 212" transform="translate(143.019 71.509)">
          <g id="Group_211" data-name="Group 211">
            <rect id="Rectangle_16929" data-name="Rectangle 16929" width="8.939" height="8.939" fill="#fff"/>
          </g>
        </g>
        <g id="Group_214" data-name="Group 214" transform="translate(151.957 62.571)">
          <g id="Group_213" data-name="Group 213">
            <rect id="Rectangle_16930" data-name="Rectangle 16930" width="8.939" height="8.939" fill="#fff"/>
          </g>
        </g>
        <g id="Group_216" data-name="Group 216" transform="translate(35.755 107.264)">
          <g id="Group_215" data-name="Group 215">
            <rect id="Rectangle_16931" data-name="Rectangle 16931" width="8.939" height="8.939" fill="#fff"/>
          </g>
        </g>
        <g id="Group_218" data-name="Group 218" transform="translate(0 116.203)">
          <g id="Group_217" data-name="Group 217">
            <path id="Path_232" data-name="Path 232" d="M53.632,386.432V350.677h8.939V332.8H53.632v8.939H26.816V332.8H8.939v8.939H0v53.632H71.509v-8.939Zm-8.939,0H8.939V350.677H44.693Z" transform="translate(0 -332.8)" fill="#fff"/>
          </g>
        </g>
        <g id="Group_220" data-name="Group 220" transform="translate(53.632 53.632)">
          <g id="Group_219" data-name="Group 219">
            <rect id="Rectangle_16932" data-name="Rectangle 16932" width="8.939" height="8.939" fill="#fff"/>
          </g>
        </g>
        <g id="Group_222" data-name="Group 222">
          <g id="Group_221" data-name="Group 221">
            <path id="Path_233" data-name="Path 233" d="M62.571,0H0V53.632H8.939v8.939h8.939V53.632h8.939v8.939h8.939V53.632H53.632V35.755h8.939V26.816H53.632V8.939H71.509V0ZM44.693,44.693H8.939V8.939H44.693Z" fill="#fff"/>
          </g>
        </g>
        <g id="Group_224" data-name="Group 224" transform="translate(107.264 26.816)">
          <g id="Group_223" data-name="Group 223">
            <rect id="Rectangle_16933" data-name="Rectangle 16933" width="8.939" height="8.939" fill="#fff"/>
          </g>
        </g>
        <g id="Group_226" data-name="Group 226" transform="translate(89.387)">
          <g id="Group_225" data-name="Group 225">
            <rect id="Rectangle_16934" data-name="Rectangle 16934" width="8.939" height="8.939" fill="#fff"/>
          </g>
        </g>
        <g id="Group_228" data-name="Group 228" transform="translate(0 35.755)">
          <g id="Group_227" data-name="Group 227">
            <path id="Path_234" data-name="Path 234" d="M107.264,120.277v-8.939H98.325V102.4H89.387v8.939H71.509V102.4H62.571v17.877h8.939v17.877H44.693v-8.939H35.755v8.939H8.939v8.939H26.816v8.939H0v8.939H26.816v8.939h8.939v-8.939h8.939v8.939h8.939v-8.939H71.509v-8.939H62.571v-8.939H80.448v8.939H98.325v-8.939H89.387v-8.939H80.448V120.277ZM53.632,156.032H35.755v-8.939H53.632Z" transform="translate(0 -102.4)" fill="#fff"/>
          </g>
        </g>
        <g id="Group_230" data-name="Group 230" transform="translate(62.571 125.141)">
          <g id="Group_229" data-name="Group 229">
            <path id="Path_235" data-name="Path 235" d="M197.077,376.277V358.4h-8.939v8.939H179.2v8.939h8.939v8.939H179.2v8.939h17.877v-8.939h8.939v-8.939Z" transform="translate(-179.2 -358.4)" fill="#fff"/>
          </g>
        </g>
        <g id="Group_232" data-name="Group 232" transform="translate(125.141 151.957)">
          <g id="Group_231" data-name="Group 231">
            <path id="Path_236" data-name="Path 236" d="M394.155,444.139V435.2h-8.939v8.939H358.4v8.939h17.877v8.939h8.939v-8.939h17.877v8.939h8.939V444.139Z" transform="translate(-358.4 -435.2)" fill="#fff"/>
          </g>
        </g>
        <g id="Group_234" data-name="Group 234" transform="translate(160.896 125.141)">
          <g id="Group_233" data-name="Group 233">
            <path id="Path_237" data-name="Path 237" d="M469.739,358.4v8.939H460.8v8.939h17.877V358.4Z" transform="translate(-460.8 -358.4)" fill="#fff"/>
          </g>
        </g>
      </g>
    </g>
  </g>
</svg>
