<svg xmlns="http://www.w3.org/2000/svg" width="175.867" height="133.322" viewBox="0 0 175.867 133.322">
  <g id="Square_academic_cap" data-name="Square academic cap" transform="translate(28.426) rotate(19)" opacity="0.2">
    <g id="Square_academic_cap-2" data-name="Square academic cap">
      <path id="Path" d="M0,0,33.815,12.723a11.535,11.535,0,0,0,8.167-.016L75.011.135V24.311c0,.023,0,.046,0,.068,0,7.448-16.792,13.486-37.505,13.486S0,31.827,0,24.379c0-.008,0-.015,0-.023s0-.03,0-.046Z" transform="translate(37.592 49.445)" fill="#3643ac"/>
      <path id="Path-2" data-name="Path" d="M.417,8.81c1.128-2.076,2.4-4.773,3.485-7.17C4.743-.227,7.137-.638,8.165,1.131a36.347,36.347,0,0,1,3.584,9.257,2.181,2.181,0,0,1-.578,2.165c-2.544,2.268-6.474,1.66-9.525.5A2.963,2.963,0,0,1,.417,8.81Z" transform="translate(142.673 58.805)" fill="#3643ac"/>
      <path id="Shape" d="M8.114,16.982H8.023a16.071,16.071,0,0,1-5.454-1.128,3.817,3.817,0,0,1-2.284-2.3,4.973,4.973,0,0,1,.3-3.987C1.79,7.344,3.118,4.492,4.019,2.491l5.05-.475.53.562,1.248-.73L9.07,2.016h0L7.2.035A3.73,3.73,0,0,1,7.709,0a3.572,3.572,0,0,1,3.139,1.849A38.036,38.036,0,0,1,14.589,11.5a3.653,3.653,0,0,1-1.022,3.586A7.921,7.921,0,0,1,8.114,16.982Zm-.4-14.088a.869.869,0,0,0-.116.008,1.275,1.275,0,0,0-.943.779C5.731,5.729,4.37,8.652,3.121,10.95a1.968,1.968,0,0,0-.185,1.4,1.089,1.089,0,0,0,.658.792,13.16,13.16,0,0,0,4.452.941h.069a5.143,5.143,0,0,0,3.533-1.169.763.763,0,0,0,.133-.745A35.8,35.8,0,0,0,8.353,3.308.725.725,0,0,0,7.711,2.895ZM4.024,2.488l0,0A4.131,4.131,0,0,1,7.2.035Z" transform="translate(141.239 57.358)" fill="#3643ac"/>
      <path id="Path-3" data-name="Path" d="M.531.327a1.443,1.443,0,0,1,2.033.2,5.462,5.462,0,0,1,.91,2.241,23.161,23.161,0,0,1,.38,2.738c.168,1.929.2,4.016.172,5.356a1.444,1.444,0,1,1-2.888-.053C1.159,9.544,1.132,7.562.976,5.76A20.294,20.294,0,0,0,.649,3.382a5.915,5.915,0,0,0-.214-.775,1.292,1.292,0,0,0-.111-.246l0,0A1.449,1.449,0,0,1,.531.327Z" transform="translate(145.719 56.29)" fill="#3643ac"/>
      <path id="Path-4" data-name="Path" d="M2.167,0A2.17,2.17,0,0,1,4.334,2.172V26.219a2.167,2.167,0,1,1-4.334,0V2.172A2.169,2.169,0,0,1,2.167,0Z" transform="translate(145.85 28.672)" fill="#3643ac"/>
      <path id="Path-5" data-name="Path" d="M11.927,5.976A5.964,5.964,0,1,1,5.964,0,5.97,5.97,0,0,1,11.927,5.976Z" transform="translate(142.053 49.769)" fill="#3643ac"/>
      <path id="Path-6" data-name="Path" d="M70.985.868.96,28.828a1.529,1.529,0,0,0,.028,2.85L71.214,58.1a12.173,12.173,0,0,0,8.618-.016l69.38-26.408a1.529,1.529,0,0,0,.029-2.845L80.06.886A12.175,12.175,0,0,0,70.985.868Z" transform="translate(0 0)" fill="#3643ac"/>
      <path id="Path-7" data-name="Path" d="M52.22.952a1.449,1.449,0,0,1-.862,1.856L1.94,20.88A1.447,1.447,0,0,1,.95,18.16L50.367.088A1.444,1.444,0,0,1,52.22.952Z" transform="translate(76.353 32.384)" fill="#3643ac"/>
      <path id="Path-8" data-name="Path" d="M.089.95A1.444,1.444,0,0,1,1.943.089L18.458,6.16a1.447,1.447,0,0,1-1,2.718L.948,2.807A1.449,1.449,0,0,1,.089.95Z" transform="translate(12.259 29.035)" fill="#3643ac"/>
    </g>
  </g>
</svg>
