<svg xmlns="http://www.w3.org/2000/svg" width="191.63" height="205.978" viewBox="0 0 191.63 205.978">
  <g id="Group_206" data-name="Group 206" transform="translate(-98.37 -55.95)">
    <path id="Path_134" data-name="Path 134" d="M2342.43,1428.342l4.088-.892,1.4,6.421-4.088.893Z" transform="translate(-2140.836 -1371.5)" fill="#fae0d8"/>
    <path id="Path_44" data-name="Path 44" d="M72.752,120.685c14.035,0,27.765-3.917,45.092-29.324s34.526-57.186,24.216-72.3C124.732-6.351,20.768-6.352,3.441,19.055S38.1,120.684,72.752,120.685Z" transform="matrix(0.799, 0.602, -0.602, 0.799, 171, 78.18)" fill="#fae0d8" opacity="0.5"/>
    <g id="Group_12" data-name="Group 12" transform="translate(183.004 102.426)">
      <path id="Path_17" data-name="Path 17" d="M10.568,6.135H26.244a1.568,1.568,0,0,0,0-3.135H10.568a1.568,1.568,0,0,0,0,3.135Z" transform="translate(6.676 3.27)" fill="#7291f9"/>
      <path id="Path_18" data-name="Path 18" d="M46.327,95.062H11.838A7.847,7.847,0,0,1,4,87.224V8.839A7.847,7.847,0,0,1,11.838,1H46.327a7.847,7.847,0,0,1,7.838,7.839,1.568,1.568,0,1,1-3.135,0,4.709,4.709,0,0,0-4.7-4.7H11.838a4.709,4.709,0,0,0-4.7,4.7V87.224a4.709,4.709,0,0,0,4.7,4.7H46.327a4.709,4.709,0,0,0,4.7-4.7V9.23a1.568,1.568,0,1,1,3.135,0V87.224A7.847,7.847,0,0,1,46.327,95.062Z" transform="translate(-4 -1.001)" fill="#7291f9"/>
    </g>
    <g id="Group_94" data-name="Group 94" transform="translate(-19.367 62.746)">
      <g id="Group_91" data-name="Group 91" transform="translate(224.073 67.129)">
        <path id="Path_217" data-name="Path 217" d="M522.852,68.8l1.4,1.228h1.892l-3.3-2.9-3.212,2.9h1.867Z" transform="translate(-519.626 -67.129)" fill="#7b3c9f" stroke="#7b3c9f" stroke-width="1"/>
      </g>
      <g id="Group_92" data-name="Group 92" transform="translate(210 70.486)">
        <path id="Path_218" data-name="Path 218" d="M244.2,152.557l.029-.023-3.321-2.919v1.663l1.358,1.193h-.018l.011.007-1.351,1.114-1.818,1.5-7.964,6.569-3.672-2.292-3.54,2.21-9.459-7.048v-9.848a2.776,2.776,0,0,1,2.773-2.773h19.544a2.776,2.776,0,0,1,2.773,2.773v10.026l.909-.753v-9.274A3.686,3.686,0,0,0,236.771,141H217.227a3.686,3.686,0,0,0-3.682,3.682v9.171l.522.389-.063-.047-.913-.68-.823-.613.823-.743V150.47l-2.213,2h-.108a3.8,3.8,0,0,0-.77,2.277v13.946a4.375,4.375,0,0,0,4.588,4.112h25.731a4.375,4.375,0,0,0,4.588-4.112V154.747A3.783,3.783,0,0,0,244.2,152.557Zm-32.8,16.136V154.747a2.6,2.6,0,0,1,.318-1.244l11.458,8.537-11.693,7.3A2.575,2.575,0,0,1,211.4,168.693Zm28.923,2.861H214.588a3.31,3.31,0,0,1-2.61-1.218l15.476-9.661,15.476,9.661A3.31,3.31,0,0,1,240.319,171.554Zm3.191-2.861a2.574,2.574,0,0,1-.083.647l-11.568-7.221,11.013-9.085a2.658,2.658,0,0,1,.638,1.714Z" transform="translate(-210 -141)" fill="#7b3c9f" stroke="#7b3c9f" stroke-width="1"/>
      </g>
    </g>
    <g id="Group_13" data-name="Group 13" transform="translate(198.369 139.137)">
      <path id="Path_26" data-name="Path 26" d="M283.031,190.152l1.61.871-.724,1.211-1.625-.96.03,1.787h-1.389l.015-1.8-1.624.975-.709-1.211,1.61-.871-1.61-.886.709-1.211,1.624.975-.015-1.8h1.389l-.03,1.8,1.625-.975.724,1.211Z" transform="translate(-278.615 -187.228)" fill="#7291f9"/>
      <path id="Path_27" data-name="Path 27" d="M290.738,190.152l1.61.871-.724,1.211-1.625-.96.03,1.787H288.64l.015-1.8-1.624.975-.709-1.211,1.61-.871-1.61-.886.709-1.211,1.624.975-.015-1.8h1.389l-.03,1.8,1.625-.975.724,1.211Z" transform="translate(-279.62 -187.228)" fill="#7291f9"/>
      <path id="Path_28" data-name="Path 28" d="M298.445,190.152l1.61.871-.724,1.211-1.625-.96.03,1.787h-1.389l.015-1.8-1.624.975-.709-1.211,1.61-.871-1.61-.886.709-1.211,1.624.975-.015-1.8h1.389l-.03,1.8,1.625-.975.724,1.211Z" transform="translate(-280.624 -187.228)" fill="#7291f9"/>
    </g>
    <rect id="Rectangle_36" data-name="Rectangle 36" width="4.486" height="4.486" transform="translate(219.84 213.961) rotate(-145.491)" fill="#7291f9"/>
    <rect id="Rectangle_37" data-name="Rectangle 37" width="4.187" height="6.572" transform="matrix(-0.824, 0.567, -0.567, -0.824, 121.861, 140.658)" fill="#ffc2c0"/>
    <rect id="Rectangle_38" data-name="Rectangle 38" width="4.187" height="6.571" transform="translate(158.705 182.961) rotate(-145.495)" fill="#7291f9"/>
    <rect id="Rectangle_39" data-name="Rectangle 39" width="4.187" height="6.571" transform="translate(175.119 94.715) rotate(-145.487)" fill="#7b3c9f"/>
    <rect id="Rectangle_40" data-name="Rectangle 40" width="9.32" height="9.323" transform="matrix(-0.214, -0.977, 0.977, -0.214, 118.303, 101.916)" fill="#7291f9"/>
    <rect id="Rectangle_41" data-name="Rectangle 41" width="9.32" height="9.323" transform="matrix(-0.214, -0.977, 0.977, -0.214, 241.518, 86.596)" fill="#ffc2c0"/>
    <rect id="Rectangle_42" data-name="Rectangle 42" width="6.258" height="6.258" transform="matrix(-0.213, -0.977, 0.977, -0.213, 283.887, 141.219)" fill="#3b3086"/>
    <rect id="Rectangle_43" data-name="Rectangle 43" width="6.571" height="4.187" transform="matrix(-0.213, -0.977, 0.977, -0.213, 272.932, 86.596)" fill="#7291f9"/>
    <path id="Path_134-2" data-name="Path 134" d="M2342.43,1428.342l4.088-.892,1.4,6.421-4.088.893Z" transform="translate(-2140.836 -1371.5)" fill="#fae0d8"/>
  </g>
</svg>
