<svg xmlns="http://www.w3.org/2000/svg" width="17.95" height="17.975" viewBox="0 0 17.95 17.975">
  <path id="search_FILL0_wght500_GRAD-25_opsz24" d="M19.475,21.025l-6.25-6.25a5.542,5.542,0,0,1-1.687.9A6.331,6.331,0,0,1,9.5,16a6.234,6.234,0,0,1-4.6-1.887A6.268,6.268,0,0,1,3.025,9.525,6.268,6.268,0,0,1,4.9,4.937,6.234,6.234,0,0,1,9.5,3.05a6.2,6.2,0,0,1,4.575,1.887A6.268,6.268,0,0,1,15.95,9.525a6.322,6.322,0,0,1-.325,2.037,5.878,5.878,0,0,1-.875,1.688l6.225,6.25ZM9.5,13.825a4.268,4.268,0,0,0,4.3-4.3,4.268,4.268,0,0,0-4.3-4.3,4.269,4.269,0,0,0-4.325,4.3,4.269,4.269,0,0,0,4.325,4.3Z" transform="translate(-3.025 -3.05)" opacity="0.5"/>
</svg>
