<svg xmlns="http://www.w3.org/2000/svg" width="191.63" height="186.428" viewBox="0 0 191.63 186.428">
  <g id="Group_261" data-name="Group 261" transform="translate(-98.37 -75.5)">
    <path id="Path_44" data-name="Path 44" d="M72.752,120.685c14.035,0,27.765-3.917,45.092-29.324s34.526-57.186,24.216-72.3C124.732-6.351,20.768-6.352,3.441,19.055S38.1,120.684,72.752,120.685Z" transform="matrix(0.799, 0.602, -0.602, 0.799, 171, 78.18)" fill="#fae0d8" opacity="0.5"/>
    <g id="Group_13" data-name="Group 13" transform="translate(198.369 174.233)">
      <path id="Path_26" data-name="Path 26" d="M283.031,190.152l1.61.871-.724,1.211-1.625-.96.03,1.787h-1.389l.015-1.8-1.624.975-.709-1.211,1.61-.871-1.61-.886.709-1.211,1.624.975-.015-1.8h1.389l-.03,1.8,1.625-.975.724,1.211Z" transform="translate(-278.615 -187.228)" fill="#7291f9"/>
      <path id="Path_27" data-name="Path 27" d="M290.738,190.152l1.61.871-.724,1.211-1.625-.96.03,1.787H288.64l.015-1.8-1.624.975-.709-1.211,1.61-.871-1.61-.886.709-1.211,1.624.975-.015-1.8h1.389l-.03,1.8,1.625-.975.724,1.211Z" transform="translate(-279.62 -187.228)" fill="#7291f9"/>
      <path id="Path_28" data-name="Path 28" d="M298.445,190.152l1.61.871-.724,1.211-1.625-.96.03,1.787h-1.389l.015-1.8-1.624.975-.709-1.211,1.61-.871-1.61-.886.709-1.211,1.624.975-.015-1.8h1.389l-.03,1.8,1.625-.975.724,1.211Z" transform="translate(-280.624 -187.228)" fill="#7291f9"/>
    </g>
    <rect id="Rectangle_36" data-name="Rectangle 36" width="4.486" height="4.486" transform="translate(219.84 213.961) rotate(-145.491)" fill="#7291f9"/>
    <rect id="Rectangle_37" data-name="Rectangle 37" width="4.187" height="6.572" transform="matrix(-0.824, 0.567, -0.567, -0.824, 121.861, 140.658)" fill="#7b3c9f"/>
    <rect id="Rectangle_38" data-name="Rectangle 38" width="4.187" height="6.571" transform="translate(158.705 182.961) rotate(-145.495)" fill="#7291f9"/>
    <rect id="Rectangle_39" data-name="Rectangle 39" width="4.187" height="6.571" transform="translate(175.119 94.715) rotate(-145.487)" fill="#7b3c9f"/>
    <rect id="Rectangle_40" data-name="Rectangle 40" width="9.32" height="9.323" transform="matrix(-0.214, -0.977, 0.977, -0.214, 118.303, 101.916)" fill="#7291f9"/>
    <rect id="Rectangle_41" data-name="Rectangle 41" width="9.32" height="9.323" transform="matrix(-0.214, -0.977, 0.977, -0.214, 241.518, 86.596)" fill="#ffc2c0"/>
    <rect id="Rectangle_42" data-name="Rectangle 42" width="6.258" height="6.258" transform="matrix(-0.213, -0.977, 0.977, -0.213, 283.887, 141.219)" fill="#3b3086"/>
    <rect id="Rectangle_43" data-name="Rectangle 43" width="6.571" height="4.187" transform="matrix(-0.213, -0.977, 0.977, -0.213, 272.932, 86.596)" fill="#7291f9"/>
    <g id="Group_153" data-name="Group 153">
      <g id="Group_12" data-name="Group 12" transform="translate(183.004 102.426)">
        <path id="Path_17" data-name="Path 17" d="M10.568,6.135H26.244a1.568,1.568,0,0,0,0-3.135H10.568a1.568,1.568,0,0,0,0,3.135Z" transform="translate(6.676 3.27)" fill="#7291f9"/>
        <path id="Path_18" data-name="Path 18" d="M46.327,95.062H11.838A7.847,7.847,0,0,1,4,87.224V8.839A7.847,7.847,0,0,1,11.838,1H46.327a7.847,7.847,0,0,1,7.838,7.839,1.568,1.568,0,1,1-3.135,0,4.709,4.709,0,0,0-4.7-4.7H11.838a4.709,4.709,0,0,0-4.7,4.7V87.224a4.709,4.709,0,0,0,4.7,4.7H46.327a4.709,4.709,0,0,0,4.7-4.7V9.23a1.568,1.568,0,1,1,3.135,0V87.224A7.847,7.847,0,0,1,46.327,95.062Z" transform="translate(-4 -1.001)" fill="#7291f9"/>
      </g>
      <path id="Path_227" data-name="Path 227" d="M36.633,17.4H35.012C34.008,8.68,27.038,2.1,18.723,2.018S3.329,8.39,2.177,17.092s3.982,16.958,12,19.293S30.6,34.411,33.833,26.314a1.431,1.431,0,0,0-.7-1.835,1.3,1.3,0,0,0-1.737.745,13.758,13.758,0,0,1-16.463,8.543C8.192,31.863,3.821,24.992,4.7,17.681S11.424,4.866,18.4,4.8,31.321,10.11,32.328,17.4H30.984a.383.383,0,0,0-.354.25.422.422,0,0,0,.083.441l2.824,2.985a.369.369,0,0,0,.542,0L36.9,18.094a.422.422,0,0,0,.083-.441A.384.384,0,0,0,36.633,17.4Zm-18.1-6.5A4.792,4.792,0,0,0,13.88,15.82v2.163h-.023a1.365,1.365,0,0,0-1.326,1.4v7.825a1.365,1.365,0,0,0,1.326,1.4h9.415a1.365,1.365,0,0,0,1.326-1.4V19.384a1.365,1.365,0,0,0-1.326-1.4h-.023V15.82a5.078,5.078,0,0,0-1.393-3.494,4.542,4.542,0,0,0-3.328-1.418Zm3.4,7.076H15.205V15.82a3.459,3.459,0,0,1,3.359-3.55,3.459,3.459,0,0,1,3.359,3.55Z" transform="translate(189.57 130.488)" fill="#7b3c9f"/>
    </g>
  </g>
</svg>
