<svg xmlns="http://www.w3.org/2000/svg" width="210.717" height="196.052" viewBox="0 0 210.717 196.052">
  <g id="Textbook" transform="translate(0 55.944) rotate(-19)" opacity="0.5">
    <g id="Textbook-2" data-name="Textbook" transform="translate(0 0)">
      <path id="Path" d="M8.3,9.8,75.03.1A9.691,9.691,0,0,1,86.106,9.375l3.639,109.614a9.7,9.7,0,0,1-9.119,10l-70.37,4.119A9.693,9.693,0,0,1,0,123.43V19.4A9.693,9.693,0,0,1,8.3,9.8Z" transform="translate(82.085 15.055)" fill="#3c48b4"/>
      <path id="Path-2" data-name="Path" d="M81.453,9.8,14.721.1A9.691,9.691,0,0,0,3.644,9.375L.005,118.989a9.694,9.694,0,0,0,9.118,10l70.37,4.119A9.693,9.693,0,0,0,89.75,123.43V19.4A9.693,9.693,0,0,0,81.453,9.8Z" transform="translate(0 15.055)" fill="#3b47b3"/>
      <path id="Path-3" data-name="Path" d="M2.693,11.09,68.178.046a3.231,3.231,0,0,1,3.766,3.093l3.415,118.012a3.232,3.232,0,0,1-3.013,3.318l-68.9,4.621A3.231,3.231,0,0,1,0,125.866V14.277A3.231,3.231,0,0,1,2.693,11.09Z" transform="translate(86.157 10.336)" fill="#fff"/>
      <path id="Shape" d="M6.454,135.562h0A6.466,6.466,0,0,1,0,129.1V17.511a6.444,6.444,0,0,1,5.386-6.374L70.87.091A6.55,6.55,0,0,1,71.955,0,6.464,6.464,0,0,1,78.4,6.279L81.817,124.29a6.444,6.444,0,0,1-6.027,6.635l-68.9,4.622C6.746,135.557,6.6,135.562,6.454,135.562ZM71.95,3.233a3.278,3.278,0,0,0-.543.046L5.923,14.323A3.224,3.224,0,0,0,3.23,17.511V129.1a3.232,3.232,0,0,0,3.225,3.231c.073,0,.147,0,.22-.007l68.9-4.62a3.221,3.221,0,0,0,3.012-3.319L75.173,6.373A3.214,3.214,0,0,0,71.95,3.233Z" transform="translate(82.928 7.103)" fill="#3c48b4"/>
      <path id="Path-4" data-name="Path" d="M2.256,17.934,58.478.152a3.231,3.231,0,0,1,4.2,2.988l3.408,117.806a3.229,3.229,0,0,1-2.618,3.267L3.84,135.685A3.229,3.229,0,0,1,0,132.512V21.015A3.231,3.231,0,0,1,2.256,17.934Z" transform="translate(87.772 3.233)" fill="#fff"/>
      <path id="Shape-2" data-name="Shape" d="M6.448,142.21h0A6.464,6.464,0,0,1,0,135.745V24.248a6.436,6.436,0,0,1,4.513-6.162L60.734.3A6.429,6.429,0,0,1,67.14,1.789a6.415,6.415,0,0,1,2,4.491l3.406,117.805a6.438,6.438,0,0,1-5.236,6.535L7.68,142.092A6.545,6.545,0,0,1,6.448,142.21ZM62.686,3.232v0a3.238,3.238,0,0,0-.978.152L5.486,21.167A3.218,3.218,0,0,0,3.23,24.248v111.5a3.232,3.232,0,0,0,3.224,3.232,3.28,3.28,0,0,0,.616-.059L66.7,127.447a3.219,3.219,0,0,0,2.618-3.267L65.91,6.373a3.253,3.253,0,0,0-3.223-3.14Z" transform="translate(84.542 0)" fill="#3c48b4"/>
      <path id="Path-5" data-name="Path" d="M0,3.239,9.916,0V26.56L4.958,23.516,0,28.477Z" transform="translate(102.521 11.664)" fill="#9ca2d9"/>
      <path id="Shape-3" data-name="Shape" d="M3.229,34.94A3.229,3.229,0,0,1,0,31.709V6.471A3.228,3.228,0,0,1,2.228,3.4L12.144.16a3.229,3.229,0,0,1,4.231,3.072v26.56a3.23,3.23,0,0,1-4.918,2.756L8.67,30.835,5.514,33.993A3.21,3.21,0,0,1,3.229,34.94ZM13.145,3.231,3.23,6.471V31.709l4.959-4.962,4.957,3.044Z" transform="translate(99.291 8.432)" fill="#3c48b4"/>
      <path id="Path-6" data-name="Path" d="M72.191,11.084,7.163.046A3.231,3.231,0,0,0,3.394,3.14L0,121.149a3.231,3.231,0,0,0,3.011,3.317l68.421,4.618a3.23,3.23,0,0,0,3.447-3.224V14.27A3.231,3.231,0,0,0,72.191,11.084Z" transform="translate(9.36 10.34)" fill="#fff"/>
      <path id="Shape-4" data-name="Shape" d="M74.886,135.557c-.146,0-.294,0-.441-.015l-68.42-4.619A6.444,6.444,0,0,1,0,124.288L3.4,6.28A6.465,6.465,0,0,1,9.841,0a6.546,6.546,0,0,1,1.091.092L75.961,11.13A6.445,6.445,0,0,1,81.339,17.5V129.093A6.466,6.466,0,0,1,74.886,135.557ZM9.846,3.232a3.251,3.251,0,0,0-3.223,3.14L3.231,124.381A3.222,3.222,0,0,0,6.241,127.7l68.421,4.619c.074.005.149.008.223.008a3.231,3.231,0,0,0,3.224-3.231V17.5a3.222,3.222,0,0,0-2.69-3.186L10.393,3.278A3.273,3.273,0,0,0,9.846,3.232Z" transform="translate(6.13 7.108)" fill="#3b47b3"/>
      <path id="Path-7" data-name="Path" d="M4.711.673A7.878,7.878,0,0,1,11.137.7,1.616,1.616,0,0,1,9.758,3.619a4.654,4.654,0,0,0-3.738.007,4.718,4.718,0,0,0-2.671,3.81,7.131,7.131,0,0,0,1.186,5.548,4.989,4.989,0,0,0,5.089,1.7,1.616,1.616,0,0,1,.539,3.186A8.2,8.2,0,0,1,2,14.982,10.349,10.349,0,0,1,.166,6.894,7.932,7.932,0,0,1,4.711.673Z" transform="translate(61.555 52.81)"/>
      <path id="Path-8" data-name="Path" d="M54.7,1.306A1.615,1.615,0,0,0,52.8.03L1.306,10.1a1.616,1.616,0,0,0,.619,3.172L53.421,3.2A1.616,1.616,0,0,0,54.7,1.306Z" transform="translate(92.336 44.096)"/>
      <path id="Path-9" data-name="Path" d="M54.7,1.306A1.615,1.615,0,0,0,52.8.03L1.306,10.1a1.616,1.616,0,0,0,.619,3.172L53.421,3.2A1.616,1.616,0,0,0,54.7,1.306Z" transform="translate(92.336 51.526)"/>
      <path id="Path-10" data-name="Path" d="M54.7,1.306A1.615,1.615,0,0,0,52.8.03L1.306,10.1a1.616,1.616,0,0,0,.619,3.172L53.421,3.2A1.616,1.616,0,0,0,54.7,1.306Z" transform="translate(92.336 81.363)"/>
      <path id="Path-11" data-name="Path" d="M54.7,1.306A1.615,1.615,0,0,0,52.8.03L1.306,10.1a1.616,1.616,0,0,0,.619,3.172L53.421,3.2A1.616,1.616,0,0,0,54.7,1.306Z" transform="translate(92.336 59.195)"/>
      <path id="Path-12" data-name="Path" d="M54.7,1.306A1.615,1.615,0,0,0,52.8.03L1.306,10.1a1.616,1.616,0,0,0,.619,3.172L53.421,3.2A1.616,1.616,0,0,0,54.7,1.306Z" transform="translate(92.336 89.032)"/>
      <path id="Path-13" data-name="Path" d="M54.7,1.306A1.615,1.615,0,0,0,52.8.03L1.306,10.1a1.616,1.616,0,0,0,.619,3.172L53.421,3.2A1.616,1.616,0,0,0,54.7,1.306Z" transform="translate(92.336 67.164)"/>
      <path id="Path-14" data-name="Path" d="M54.7,1.306A1.615,1.615,0,0,0,52.8.03L1.306,10.1a1.616,1.616,0,0,0,.619,3.172L53.421,3.2A1.616,1.616,0,0,0,54.7,1.306Z" transform="translate(92.336 97.001)"/>
      <path id="Path-15" data-name="Path" d="M31.35,1.342A1.615,1.615,0,0,0,29.484.024L1.341,4.877a1.616,1.616,0,0,0,.549,3.185L30.033,3.209A1.616,1.616,0,0,0,31.35,1.342Z" transform="translate(92.335 109.882)"/>
      <path id="Path-16" data-name="Path" d="M.007,1.468A1.615,1.615,0,0,1,1.763.007L53.977,4.8a1.616,1.616,0,0,1-.3,3.218L1.467,3.225A1.615,1.615,0,0,1,.007,1.468Z" transform="translate(19.992 78.636)"/>
      <path id="Path-17" data-name="Path" d="M.007,1.468A1.615,1.615,0,0,1,1.763.007L53.977,4.8a1.616,1.616,0,0,1-.3,3.218L1.467,3.225A1.615,1.615,0,0,1,.007,1.468Z" transform="translate(19.992 100.2)"/>
      <path id="Path-18" data-name="Path" d="M0,1.508A1.615,1.615,0,0,1,1.723,0l28.5,1.917a1.616,1.616,0,0,1-.217,3.225L1.507,3.228A1.616,1.616,0,0,1,0,1.508Z" transform="translate(19.992 86.292)"/>
      <path id="Path-19" data-name="Path" d="M0,1.5A1.615,1.615,0,0,1,1.728,0l40.9,2.865a1.616,1.616,0,0,1-.225,3.224L1.5,3.228A1.616,1.616,0,0,1,0,1.5Z" transform="translate(19.992 107.856)"/>
      <path id="Path-20" data-name="Path" d="M0,1.508A1.615,1.615,0,0,1,1.723,0l28.5,1.917a1.616,1.616,0,0,1-.217,3.225L1.507,3.228A1.615,1.615,0,0,1,0,1.508Z" transform="translate(19.992 114.735)"/>
      <path id="Path-21" data-name="Path" d="M14.267,0a1.615,1.615,0,0,1,1.474,1.163l9.581,32.952a1.615,1.615,0,1,1-3.1.9L13.953,6.585,3.116,33.847a1.615,1.615,0,1,1-3-1.194L12.689,1.019A1.615,1.615,0,0,1,14.267,0Z" transform="translate(16.346 33.073)"/>
      <path id="Path-22" data-name="Path" d="M16.7,1.616a1.615,1.615,0,0,1-1.615,1.616H1.615A1.616,1.616,0,0,1,1.615,0H15.088A1.615,1.615,0,0,1,16.7,1.616Z" transform="translate(20.899 53.504)"/>
      <path id="Shape-5" data-name="Shape" d="M4.548,26.863h0a12.3,12.3,0,0,1-3.392-.448A1.6,1.6,0,0,1,0,24.867V1.621A1.607,1.607,0,0,1,1.571,0c.119,0,.243,0,.37,0A15.378,15.378,0,0,1,7.8,1.142a6.548,6.548,0,0,1,4.289,5.99,5.374,5.374,0,0,1-1.49,3.806,6.041,6.041,0,0,1-.965.808A9.268,9.268,0,0,1,12.9,14.7,7.2,7.2,0,0,1,14,19.53a7.7,7.7,0,0,1-1.975,4.522A8.39,8.39,0,0,1,8.348,26.3,12.689,12.689,0,0,1,4.548,26.863ZM3.23,13.292V23.551a10.551,10.551,0,0,0,1.317.081,9.418,9.418,0,0,0,2.822-.408,5.207,5.207,0,0,0,2.286-1.368,4.493,4.493,0,0,0,1.133-2.676c.228-2.083-.865-3.727-3.247-4.886A12.477,12.477,0,0,0,4.4,13.283c-.235.012-.472.017-.7.017C3.541,13.3,3.383,13.3,3.23,13.292Zm0-9.993V9.9a12.118,12.118,0,0,1,1.338.135,9.129,9.129,0,0,0,1.968-.366A4.079,4.079,0,0,0,8.274,8.7a2.114,2.114,0,0,0,.588-1.564c0-1.361-.75-2.324-2.36-3.031A11.117,11.117,0,0,0,3.23,3.3Z" transform="translate(45.448 43.014)"/>
    </g>
  </g>
</svg>
